<?xml version="1.0" standalone="no"?><!DOCTYPE svg PUBLIC "-//W3C//DTD SVG 1.1//EN" "http://www.w3.org/Graphics/SVG/1.1/DTD/svg11.dtd"><svg t="1734503229909" class="icon" viewBox="0 0 1024 1024" version="1.1" xmlns="http://www.w3.org/2000/svg" p-id="2823" xmlns:xlink="http://www.w3.org/1999/xlink" width="200" height="200"><path d="M779.2 839.5H244.9c-33.1 0-60-26.9-60-60V243.3c0-33.1 26.9-60 60-60h534.4c33.1 0 60 26.9 60 60v536.2c-0.1 33.1-27 60-60.1 60zM244.9 223.3c-11 0-20 9-20 20v536.2c0 11 9 20 20 20h534.4c11 0 20-9 20-20V243.3c0-11-9-20-20-20H244.9z" fill="#1C1C1C" p-id="2824"></path><path d="M358.5 275.4c-11 0-20-9-20-20V152.5c0-11 9-20 20-20s20 9 20 20v102.9c0 11.1-9 20-20 20zM665.6 275.4c-11 0-20-9-20-20V152.5c0-11 9-20 20-20s20 9 20 20v102.9c0 11.1-8.9 20-20 20zM204.9 286.6h614.3v40H204.9zM461.7 685.3c-5.1 0-10.2-2-14.1-5.9L344.3 576.2c-7.8-7.8-7.8-20.5 0-28.3 7.8-7.8 20.5-7.8 28.3 0l89.1 89.1 241-241c7.8-7.8 20.5-7.8 28.3 0 7.8 7.8 7.8 20.5 0 28.3L475.8 679.5c-3.9 3.9-9 5.8-14.1 5.8z" fill="#1C1C1C" p-id="2825"></path></svg>